<?xml version="1.0" encoding="UTF-8"?><svg id="Camada_2" xmlns="http://www.w3.org/2000/svg" viewBox="0 0 40.33 2020.84"><defs><style>.cls-1{fill:#fff;}.cls-2{fill:#e7344c;}.cls-3{fill:#992132;}.cls-4{fill:#c6c6c5;}</style></defs><g id="Camada_1-2"><g id="Grupo_4"><g id="Grupo_2"><rect id="Retângulo_1" class="cls-2" x="0" y="6.31" width="40.33" height="2014.53"/><rect id="Retângulo_2" class="cls-3" x="25.36" y="6.31" width="14.97" height="2014.53"/><path id="Caminho_1" class="cls-1" d="M0,1626.93l40.33-40.18v37.88L0,1664.81v-37.88Zm0-55.44l40.33-40.18v-37.87L0,1533.62v37.88Zm0,186.63l40.33-40.18v-37.87L0,1720.25v37.87Zm0,93.32l40.33-40.18v-37.87L0,1813.56v37.88Zm0,169.4H17.29l23.04-22.95v-37.88L0,2000.19v20.65Zm0-76.09l40.33-40.18v-37.87L0,1906.87v37.88Zm0-466.57l40.33-40.18v-37.87L0,1440.3v37.88Zm0-466.57l40.33-40.18v-37.87L0,973.74v37.88Zm0-93.32l40.33-40.18v-37.88L0,880.42v37.88Zm0-93.32l40.33-40.18v-37.87L0,787.1v37.88Zm0,279.94l40.33-40.18v-37.87L0,1067.05v37.88Zm0,186.63l40.33-40.18v-37.87L0,1253.68v37.88Zm0-93.32l40.33-40.18v-37.87L0,1160.36v37.88Zm0,186.63l40.33-40.18v-37.87L0,1346.99v37.88ZM0,451.61l40.33-40.18v-37.87L0,413.73v37.88Zm0-93.32l40.33-40.18v-37.86L0,320.42v37.88Zm0,186.63l40.33-40.18v-37.87L0,507.05v37.88Zm0,93.32l40.33-40.18v-37.88L0,600.36v37.88Zm0,93.32l40.33-40.18v-37.88L0,693.66v37.89ZM0,227.1v37.87l40.33-40.18v-37.86L0,227.1Zm0-93.32v37.88l40.33-40.18v-37.87L0,133.79ZM0,40.47v37.88L40.33,38.17V.3L0,40.47Z"/><g id="Grupo_1"><path id="Caminho_2" class="cls-4" d="M25.36,1415.05v37.88l14.97-14.92v-37.88l-14.97,14.92Z"/><path id="Caminho_3" class="cls-4" d="M25.36,1321.73v37.88l14.97-14.92v-37.88l-14.97,14.92Z"/><path id="Caminho_4" class="cls-4" d="M25.36,1508.36v37.87l14.97-14.92v-37.87l-14.97,14.92Z"/><path id="Caminho_5" class="cls-4" d="M25.36,1228.42v37.88l14.97-14.92v-37.88l-14.97,14.92Z"/><path id="Caminho_6" class="cls-4" d="M25.36,1881.62v37.88l14.97-14.92v-37.88l-14.97,14.92Z"/><path id="Caminho_7" class="cls-4" d="M25.36,1135.11v37.88l14.97-14.92v-37.88l-14.97,14.92Z"/><path id="Caminho_8" class="cls-4" d="M40.33,1997.89v-37.88l-14.97,14.92v37.87l14.97-14.91Z"/><path id="Caminho_9" class="cls-4" d="M25.36,1601.68v37.88l14.97-14.92v-37.88l-14.97,14.92Z"/><path id="Caminho_10" class="cls-4" d="M25.36,1788.3v37.88l14.97-14.92v-37.88l-14.97,14.92Z"/><path id="Caminho_11" class="cls-4" d="M25.36,1694.99v37.88l14.97-14.92v-37.88l-14.97,14.92Z"/><path id="Caminho_12" class="cls-4" d="M25.36,481.79v37.88l14.97-14.92v-37.87l-14.97,14.91Z"/><path id="Caminho_13" class="cls-4" d="M25.36,388.48v37.88l14.97-14.92v-37.88l-14.97,14.92Z"/><path id="Caminho_14" class="cls-4" d="M25.36,575.1v37.88l14.97-14.92v-37.88l-14.97,14.92Z"/><path id="Caminho_15" class="cls-4" d="M25.36,295.16v37.88l14.97-14.92v-37.87l-14.97,14.91Z"/><path id="Caminho_16" class="cls-4" d="M25.36,201.75v37.88l14.97-14.92v-37.88l-14.97,14.92Z"/><path id="Caminho_17" class="cls-4" d="M25.36,108.33v37.88l14.97-14.92v-37.88l-14.97,14.92Z"/><path id="Caminho_18" class="cls-4" d="M25.36,14.92V52.8l14.97-14.92V0l-14.97,14.92Z"/><path id="Caminho_19" class="cls-4" d="M25.36,668.42v37.88l14.97-14.92v-37.88l-14.97,14.92Z"/><path id="Caminho_20" class="cls-4" d="M25.36,855.16v37.88l14.97-14.92v-37.88l-14.97,14.92Z"/><path id="Caminho_21" class="cls-4" d="M25.36,948.48v37.88l14.97-14.92v-37.88l-14.97,14.92Z"/><path id="Caminho_22" class="cls-4" d="M25.36,1041.79v37.88l14.97-14.92v-37.88l-14.97,14.92Z"/><path id="Caminho_23" class="cls-4" d="M25.36,761.86v37.88l14.97-14.92v-37.88l-14.97,14.92Z"/></g></g></g></g></svg>