<?xml version="1.0" encoding="UTF-8"?><svg id="Camada_2" xmlns="http://www.w3.org/2000/svg" viewBox="0 0 18.12 16.72"><defs><style>.cls-1{fill:#e7344c;}.cls-2{fill:#dfaa72;}</style></defs><g id="Camada_1-2"><g id="Grupo_1"><path id="Caminho_2" class="cls-2" d="M16.76,10.2c0-.43-.35-.77-.77-.77h-4.17c-.43,0-.77,.35-.77,.77v3.32c0,.43-.35,.78-.77,.78h-2.4c-.43,0-.78-.35-.78-.77h0v-3.33c0-.43-.35-.77-.77-.77H2.14c-.43,0-.77,.35-.77,.77v3.26c4.13,4.25,10.92,4.35,15.17,.22,.07-.07,.15-.14,.22-.22v-3.26Z"/><g><rect id="Retângulo_1" class="cls-2" x="8.6" y=".69" width=".92" height="14.87"/><path id="Caminho_3" class="cls-1" d="M18.12,3.83C13.26-1.17,5.26-1.29,.26,3.57c-.09,.08-.17,.17-.26,.26H18.12Z"/></g></g></g></svg>