<svg xmlns="http://www.w3.org/2000/svg" xmlns:xlink="http://www.w3.org/1999/xlink" viewBox="0 0 3978.5 1477.24"><defs><style>.cls-1{fill:#73202c;}.cls-2{fill:#8d2939;}.cls-3{fill:#5b0022;}.cls-4{fill:#2f0705;}.cls-5{fill:#b7182e;}.cls-6{fill:url(#linear-gradient);}.cls-7{fill:url(#linear-gradient-2);}</style><linearGradient id="linear-gradient" x1="3635.17" y1="154.53" x2="3635.17" y2="24.68" gradientUnits="userSpaceOnUse"><stop offset="0.18" stop-color="#b7182e"/><stop offset="0.36" stop-color="#ab1d31"/><stop offset="0.75" stop-color="#952637"/><stop offset="1" stop-color="#8d2939"/></linearGradient><linearGradient id="linear-gradient-2" x1="708.92" y1="148.45" x2="708.92" y2="23.85" xlink:href="#linear-gradient"/></defs><title>Preenchimento Desktop NUVENSAsset 7</title><g id="Layer_2" data-name="Layer 2"><g id="Nova_camada_DESKTOP" data-name="Nova camada DESKTOP"><polygon class="cls-1" points="560.48 606.88 581.63 591.71 566.46 612.86 581.63 634.01 560.48 618.84 539.34 634.01 554.5 612.86 539.34 591.71 560.48 606.88"/><polygon class="cls-1" points="564.71 608.63 590.39 612.86 564.71 617.09 560.48 654.73 556.25 617.09 530.58 612.86 556.25 608.63 560.48 573.98 564.71 608.63"/><polygon class="cls-1" points="424.89 1069.12 560.49 666.17 696.08 1069.12 424.89 1069.12"/><polygon class="cls-1" points="691.98 1037.61 669.84 971.81 451.12 971.81 428.98 1037.61 691.98 1037.61"/><polygon class="cls-1" points="477.49 893.45 455.35 959.24 665.62 959.24 643.48 893.45 477.49 893.45"/><polygon class="cls-1" points="503.86 815.09 481.72 880.89 639.25 880.89 617.11 815.09 503.86 815.09"/><polygon class="cls-1" points="508.08 802.53 612.88 802.53 590.74 736.73 530.23 736.73 508.08 802.53"/><polygon class="cls-1" points="424.75 1050.17 416.28 1075.35 560.48 1075.35 704.68 1075.35 696.21 1050.17 424.75 1050.17"/><polygon class="cls-1" points="586.51 724.17 560.48 646.82 534.45 724.17 586.51 724.17"/><path class="cls-2" d="M705.07,1061.41h0a36,36,0,0,1,.2-4c2.87-25.94,32.45-30.2,32.45-30.2s-11-8.76-.78-18.34,40.46-1.15,40.46-1.15-15.28-12.92-6.21-33.32,37.81-19,43.15-9.19c0,0,2.35-28.28,35.5-16.6,0,0-15.17-14.77,4-28.87s46-9.42,60.81,2c0,0,.9-10.82,16.76-16,10.65-3.45,19.82.22,24,6.69,3.69-26.68,15.8-46.11,30.7-52.21,19.17-7.85,25.1,9.46,25.1,9.46,9.62-44.4,59.66-35.36,59.66-35.36s-11.19-17.79.84-33.9c18.88-25.26,56-2.82,56-2.82,4.08-9,17.16-15.35,36.77-10.8,34,7.88,49.76,35.37,49.76,35.37-2.64-12.11,9.61-23.12,25.62-18.53s17.28,15.38,17.28,15.38c14.39-11.86,41-17.44,60.72-4s5,28.73,5,28.73c32.74-12.79,36,15.4,36,15.4,5-10,33.69-12.33,43.44,7.74s-5.09,33.51-5.09,33.51,30-9.45,40.48-.21c7.91,7,3.81,13.84,1.31,16.82a18.18,18.18,0,0,1,1,1.95c7.21,1.45,27.88,7.42,31,28.68.08.56.13,1.1.18,1.63a22.68,22.68,0,0,1,.91,3.83c5-10,33.68-12.33,43.43,7.75s-5.09,33.5-5.09,33.5,30-9.44,40.48-.21-.16,18.36-.16,18.36,29.7,3.27,33.43,29.1a34.58,34.58,0,0,1,.34,3.94h0l.58,35-879.54,14.72Z"/><path class="cls-2" d="M3075.58,1034.3h0a34,34,0,0,1,.2-4c2.86-25.93,32.44-30.19,32.44-30.19s-11-8.76-.78-18.35,40.46-1.15,40.46-1.15-15.27-12.92-6.2-33.31,37.81-19,43.15-9.2c0,0,2.35-28.28,35.49-16.59,0,0-15.16-14.78,4-28.88s46-9.41,60.82,2c0,0,.9-10.82,16.75-15.94,10.66-3.45,19.82.22,24,6.69,3.68-26.68,15.79-46.11,30.69-52.22,19.17-7.85,25.11,9.47,25.11,9.47,9.61-44.41,59.65-35.36,59.65-35.36s-11.18-17.8.85-33.9c18.87-25.27,56-2.82,56-2.82,4.09-9,17.16-15.35,36.77-10.8,34,7.88,49.76,35.37,49.76,35.37-2.63-12.12,9.61-23.13,25.63-18.53S3627.71,792,3627.71,792c14.39-11.86,41-17.44,60.72-4s5,28.72,5,28.72c32.73-12.78,36,15.4,36,15.4,5-10,33.68-12.33,43.43,7.75s-5.09,33.5-5.09,33.5,30-9.44,40.48-.21c7.91,7,3.82,13.85,1.31,16.83a16.47,16.47,0,0,1,1,1.95c7.21,1.45,27.88,7.41,30.95,28.68.08.55.14,1.09.19,1.63a23.16,23.16,0,0,1,.9,3.83c5-10,33.69-12.34,43.44,7.74s-5.09,33.5-5.09,33.5,30-9.44,40.47-.2-.16,18.36-.16,18.36,29.71,3.27,33.44,29.09a37.11,37.11,0,0,1,.33,4h0l.59,35-879.55,14.73Z"/><path class="cls-2" d="M2236.21,1032.82h0a26.38,26.38,0,0,0-.14-2.75c-2-18-22.49-20.92-22.49-20.92s7.61-6.07.54-12.72-28-.79-28-.79a19.73,19.73,0,0,0,4.3-23.09c-6.28-14.13-26.2-13.16-29.9-6.37,0,0-1.63-19.61-24.6-11.51,0,0,10.51-10.24-2.81-20s-31.91-6.53-42.15,1.35c0,0-.62-7.5-11.61-11-7.39-2.39-13.74.15-16.65,4.64-2.56-18.49-11-32-21.28-36.19C2028.09,888,2024,900,2024,900c-6.66-30.78-41.34-24.51-41.34-24.51s7.75-12.33-.59-23.49c-13.08-17.51-38.78-2-38.78-2-2.84-6.24-11.9-10.64-25.49-7.48C1894.23,848,1883.28,867,1883.28,867c1.83-8.39-6.65-16-17.76-12.84s-12,10.66-12,10.66c-10-8.22-28.45-12.09-42.08-2.77S1808,882,1808,882c-22.68-8.86-25,10.67-25,10.67-3.47-6.9-23.34-8.54-30.1,5.37s3.53,23.22,3.53,23.22-20.77-6.54-28.06-.14c-5.48,4.82-2.64,9.59-.91,11.66a12.41,12.41,0,0,0-.7,1.35c-5,1-19.32,5.14-21.45,19.88,0,.38-.09.76-.12,1.13a15.5,15.5,0,0,0-.63,2.65c-3.48-6.91-23.35-8.55-30.1,5.37a19.73,19.73,0,0,0,3.52,23.22s-20.77-6.55-28-.14.11,12.72.11,12.72-20.59,2.27-23.17,20.16a22.17,22.17,0,0,0-.23,2.74h0l-.4,192.93L2235.82,1225Z"/><path class="cls-1" d="M1566.66,1281h0a61.4,61.4,0,0,0-.47-7c-5.83-45.82-58.32-52.48-58.32-52.48s19.16-15.83.84-32.49-71.65-.83-71.65-.83,26.66-23.33,10-59.15-67.48-32.49-76.64-15c0,0-5-50-63.31-28.32,0,0,26.4-26.6-8-51s-81.76-15.3-107.58,5.26c0,0-1.91-19.12-30.12-27.73-19-5.78-35.07,1-42.32,12.56-7.32-47.11-29.33-81.14-55.88-91.5C1029,920,1019,950.83,1019,950.83,1000.66,872.52,912.36,890,912.36,890s19.27-31.83-2.5-60c-34.16-44.15-99.14-3.33-99.14-3.33-7.49-15.83-30.82-26.66-65.39-18-59.88,15-87,64.07-87,64.07,4.3-21.51-17.7-40.64-45.91-32s-30.12,27.73-30.12,27.73c-25.82-20.56-73.16-29.65-107.58-5.26s-8,51-8,51c-58.31-21.66-63.31,28.32-63.31,28.32-9.16-17.49-60-20.83-76.64,15s10,59.15,10,59.15-53.32-15.83-71.65.83c-13.79,12.55-6.35,24.62-1.82,29.82a31.24,31.24,0,0,0-1.73,3.48c-12.71,2.78-49.12,14-53.93,51.68-.12,1-.2,1.94-.27,2.89a41.24,41.24,0,0,0-1.5,6.8c-9.16-17.49-60-20.83-76.64,15s10,59.15,10,59.15-53.32-15.83-71.64.83.83,32.49.83,32.49-52.48,6.67-58.31,52.49a61.46,61.46,0,0,0-.48,7h0v62H1566.66Z"/><path class="cls-1" d="M1510.61,1258.24h0a54.7,54.7,0,0,1,.43-6.23c5.19-40.79,51.92-46.73,51.92-46.73s-17.06-14.09-.75-28.92,63.79-.75,63.79-.75-23.73-20.77-8.9-52.66,60.08-28.93,68.24-13.35c0,0,4.45-44.51,56.37-25.22,0,0-23.51-23.68,7.15-45.4s72.8-13.62,95.79,4.69c0,0,1.7-17,26.82-24.7,16.88-5.15,31.22.88,37.68,11.19,6.51-42,26.11-72.25,49.75-81.48,30.41-11.86,39.31,15.58,39.31,15.58,16.32-69.72,94.94-54.15,94.94-54.15s-17.16-28.34,2.23-53.4c30.41-39.31,88.26-3,88.26-3,6.68-14.09,27.45-23.73,58.23-16,53.31,13.32,77.48,57,77.48,57-3.83-19.15,15.76-36.18,40.87-28.52s26.83,24.69,26.83,24.69c23-18.31,65.13-26.39,95.78-4.68s7.15,45.4,7.15,45.4c51.92-19.29,56.37,25.21,56.37,25.21,8.16-15.57,53.4-18.54,68.24,13.35s-8.9,52.67-8.9,52.67,47.47-14.09,63.79.74c12.28,11.17,5.65,21.91,1.62,26.54a26.35,26.35,0,0,1,1.54,3.11c11.32,2.47,43.74,12.41,48,46,.11.88.18,1.73.24,2.58a36.22,36.22,0,0,1,1.33,6.06c8.16-15.58,53.41-18.55,68.24,13.35s-8.9,52.66-8.9,52.66,47.47-14.09,63.79.74-.74,28.93-.74,28.93,46.73,5.93,51.92,46.73a56.85,56.85,0,0,1,.42,6.23h0v55.17H1510.61Z"/><path class="cls-1" d="M3733.08,1175h0a44.86,44.86,0,0,0-.33-4.78c-4-31.28-39.82-35.83-39.82-35.83s13.08-10.81.57-22.19-48.92-.57-48.92-.57,18.2-15.92,6.83-40.39-46.08-22.18-52.34-10.23c0,0-3.41-34.14-43.23-19.35,0,0,18-18.16-5.48-34.81s-55.83-10.45-73.46,3.59c0,0-1.31-13.06-20.57-18.94-12.95-3.95-23.95.67-28.9,8.58-5-32.17-20-55.41-38.16-62.48-23.32-9.1-30.14,11.94-30.14,11.94-12.52-53.47-72.82-41.52-72.82-41.52s13.17-21.74-1.7-41c-23.33-30.15-67.7-2.28-67.7-2.28-5.12-10.8-21-18.2-44.65-12.3-40.89,10.21-59.42,43.75-59.42,43.75,2.93-14.69-12.08-27.75-31.35-21.88s-20.57,18.94-20.57,18.94c-17.63-14-50-20.24-73.46-3.59s-5.48,34.81-5.48,34.81c-39.82-14.79-43.23,19.34-43.23,19.34-6.26-11.94-41-14.22-52.34,10.24s6.83,40.39,6.83,40.39-36.41-10.81-48.92.57c-9.42,8.57-4.34,16.81-1.25,20.36a22.83,22.83,0,0,0-1.18,2.38c-8.68,1.89-33.54,9.52-36.82,35.28-.09.68-.14,1.33-.19,2a27.81,27.81,0,0,0-1,4.64c-6.26-11.94-41-14.22-52.33,10.24s6.82,40.39,6.82,40.39-36.4-10.81-48.92.57.57,22.18.57,22.18-35.84,4.55-39.82,35.84a42.15,42.15,0,0,0-.32,4.78h0V1216H3733.08Z"/><path class="cls-3" d="M2429.72,1302.67h0a56.42,56.42,0,0,0-.43-6.33c-5.28-41.42-52.73-47.45-52.73-47.45s17.33-14.31.76-29.37-64.78-.76-64.78-.76,24.1-21.09,9-53.47-61-29.38-69.29-13.56c0,0-4.52-45.19-57.24-25.61,0,0,23.87-24-7.26-46.1s-73.92-13.83-97.27,4.76c0,0-1.72-17.29-27.23-25.07-17.14-5.23-31.71.88-38.26,11.35-6.62-42.6-26.52-73.36-50.52-82.73-30.88-12.05-39.92,15.82-39.92,15.82-16.57-70.8-96.41-55-96.41-55s17.43-28.78-2.26-54.23c-30.88-39.92-89.63-3-89.63-3-6.77-14.31-27.86-24.1-59.12-16.29-54.14,13.52-78.68,57.93-78.68,57.93,3.89-19.46-16-36.75-41.5-29s-27.24,25.08-27.24,25.08c-23.34-18.59-66.14-26.81-97.27-4.76s-7.25,46.1-7.25,46.1c-52.72-19.58-57.24,25.61-57.24,25.61-8.29-15.82-54.23-18.83-69.29,13.55s9,53.48,9,53.48-48.2-14.31-64.77.75c-12.47,11.34-5.74,22.25-1.65,27a26.28,26.28,0,0,0-1.56,3.15c-11.5,2.51-44.42,12.61-48.76,46.72-.11.89-.18,1.75-.25,2.61a36.43,36.43,0,0,0-1.35,6.15c-8.28-15.82-54.23-18.83-69.29,13.56s9,53.47,9,53.47-48.21-14.31-64.78.76.76,29.37.76,29.37-47.45,6-52.73,47.45a56.42,56.42,0,0,0-.43,6.33h0v176.31H2429.72Z"/><path class="cls-3" d="M3812.12,1336.88h0a77.09,77.09,0,0,0-.61-8.88c-7.4-58.15-74-66.6-74-66.6s24.32-20.09,1.06-41.23-90.92-1.06-90.92-1.06,33.83-29.6,12.69-75.06-85.64-41.23-97.27-19c0,0-6.34-63.43-80.34-36,0,0,33.51-33.75-10.18-64.7S3368.74,1005,3336,1031.05c0,0-2.43-24.28-38.23-35.2-24.06-7.34-44.51,1.25-53.71,15.94-9.28-59.79-37.21-103-70.91-116.12-43.34-16.92-56,22.2-56,22.2-23.26-99.38-135.32-77.18-135.32-77.18s24.46-40.39-3.17-76.11c-43.35-56-125.81-4.23-125.81-4.23-9.51-20.09-39.11-33.83-83-22.88-76,19-110.44,81.32-110.44,81.32,5.47-27.31-22.45-51.58-58.25-40.66s-38.23,35.19-38.23,35.19c-32.76-26.09-92.84-37.62-136.53-6.67s-10.18,64.7-10.18,64.7c-74-27.48-80.34,35.95-80.34,35.95-11.63-22.2-76.12-26.43-97.26,19s12.68,75.06,12.68,75.06-67.66-20.09-90.92,1.05c-17.51,15.92-8.05,31.24-2.31,37.84a39.48,39.48,0,0,0-2.2,4.42c-16.13,3.52-62.34,17.7-68.43,65.58-.16,1.25-.26,2.46-.36,3.67a51.85,51.85,0,0,0-1.89,8.63c-11.63-22.2-76.12-26.43-97.26,19s12.69,75.06,12.69,75.06-67.66-20.09-90.92,1.06,1.06,41.23,1.06,41.23-66.61,8.45-74,66.6a79.31,79.31,0,0,0-.6,8.88h0v142.8H3812.12Z"/><path class="cls-4" d="M3376.22,1477.24H3978.5V817.79c-29.16-23.22-82.6-33.47-121.47-5.94s-9.06,57.56-9.06,57.56c-65.83-24.45-71.48,32-71.48,32-10.34-19.75-67.72-23.51-86.53,16.93s11.29,66.78,11.29,66.78-60.19-17.87-80.89.94c-15.57,14.16-7.16,27.79-2.05,33.66a34.23,34.23,0,0,0-2,3.93c-14.35,3.13-55.46,15.75-60.88,58.34-.14,1.12-.23,2.19-.32,3.27a46.26,46.26,0,0,0-1.68,7.68c-10.35-19.75-67.72-23.52-86.53,16.93s11.29,66.77,11.29,66.77-60.2-17.86-80.89,1,.94,36.68.94,36.68-59.25,7.52-65.84,59.25a70.8,70.8,0,0,0-.53,7.9h0v11.28c-25.37-5.27-53.85-2.33-77.11,14.14-38.87,27.53-9.06,57.57-9.06,57.57-65.84-24.46-71.48,32-71.48,32-10.35-19.75-67.72-23.51-86.53,16.93-15.2,32.68,1.53,56.14,8.51,64Z"/><path class="cls-4" d="M3087.76,1477.24c-16.43-3.7-46.92-8.7-64.05,0Z"/><path class="cls-4" d="M1552,1477.24c-11.86-34.12-31.56-58.17-54.17-67-38.56-15-49.85,19.75-49.85,19.75-20.69-88.41-120.39-68.66-120.39-68.66s21.76-35.94-2.82-67.72c-38.56-49.85-111.92-3.76-111.92-3.76-8.47-17.87-34.8-30.1-73.84-20.35a155.45,155.45,0,0,0-27.84,9.85c-.09-1.21-.19-2.43-.36-3.69-6.58-51.73-65.83-59.25-65.83-59.25s21.63-17.87.94-36.68-80.89-.94-80.89-.94,30.1-26.34,11.29-66.78-76.18-36.68-86.53-16.93c0,0-5.64-56.43-71.48-32,0,0,29.81-30-9.06-57.56s-92.31-17.28-121.46,5.94c0,0-2.16-21.6-34-31.32-21.41-6.53-39.6,1.11-47.78,14.18-8.26-53.19-33.11-91.61-63.09-103.31-38.56-15-49.85,19.76-49.85,19.76-20.69-88.42-120.39-68.66-120.39-68.66s21.77-35.94-2.82-67.72c-38.56-49.85-111.92-3.76-111.92-3.76-8.47-17.87-34.8-30.1-73.84-20.35-67.6,16.88-98.25,72.34-98.25,72.34,4.86-24.3-20-45.89-51.82-36.17S0,817.79,0,817.79v659.45H1552Z"/><polygon class="cls-4" points="3055.29 569.2 3080.66 551 3062.47 576.37 3080.66 601.75 3055.29 583.55 3029.91 601.75 3048.11 576.37 3029.91 551 3055.29 569.2"/><polygon class="cls-4" points="3060.36 571.3 3091.17 576.37 3060.36 581.45 3055.29 626.61 3050.21 581.45 3019.4 576.37 3050.21 571.3 3055.29 529.72 3060.36 571.3"/><polygon class="cls-4" points="2892.58 1123.85 3055.29 640.34 3217.99 1123.85 2892.58 1123.85"/><polygon class="cls-4" points="3213.08 1086.03 3186.51 1007.08 2924.06 1007.08 2897.5 1086.03 3213.08 1086.03"/><polygon class="cls-4" points="2955.7 913.06 2929.14 992 3181.44 992 3154.87 913.06 2955.7 913.06"/><polygon class="cls-4" points="2987.34 819.03 2960.78 897.98 3149.8 897.98 3123.23 819.03 2987.34 819.03"/><polygon class="cls-4" points="2992.41 803.96 3118.16 803.96 3091.6 725.01 3018.98 725.01 2992.41 803.96"/><polygon class="cls-4" points="2892.42 1101.11 2882.26 1131.32 3055.29 1131.32 3228.32 1131.32 3218.15 1101.11 2892.42 1101.11"/><polygon class="cls-4" points="3086.52 709.93 3055.29 617.11 3024.05 709.93 3086.52 709.93"/></g><g id="Camada_3" data-name="Camada 3"><path class="cls-5" d="M90,68.08s-7-21.85-40.76-20c0,0-11.76-26.12-49.19-20.46V68.08Z"/><path class="cls-5" d="M3176.16,328.54c11.69-33,52.94-33.19,52.94-33.19s-6.89-8.4-.43-17.31c15.63-21.54,49.83-6.16,49.83-6.16-2.54-2.29-9.19-15.65-1.69-23,37.32-36.49,101.84,10.34,101.84,10.34,4.16-16.65,33.29-15.61,49.95,1a89.93,89.93,0,0,1,22.59,39.29c37.15.42,46.39,24.29,47.29,29Z"/><path class="cls-5" d="M3978.5,27.6s-11.76-23.07-35.15-14.15A49,49,0,0,0,3903.91.32c-24.65,2.74-11.69,23.18-11.69,23.18s-46.92-11.2-53.09,11.37c-3.05,11.16,5.5,14.53,5.5,14.53s-50.64-6.22-79.86,18.68H3978.5Z"/><path class="cls-6" d="M3704.6,42.81c0-21.61-19.39-39.79-47.39-31.61C3633,.38,3600.07,7.76,3579.93,37c0,0-29.3-19.73-34.79,14.1,0,0-51.27-17.86-51.18,28.19,0,0-28.47-4.7-35.79,17.85-36.49-10.07-66.43,21.61-66.43,21.61H3878.6s-55.86-52.5-116.87-76C3735.2,32.61,3704.6,42.81,3704.6,42.81Z"/><path class="cls-5" d="M314.34,194.16c10-28.22,45.26-28.38,45.26-28.38s-5.89-7.19-.36-14.81c13.36-18.41,42.6-5.26,42.6-5.26-2.17-2-7.86-13.37-1.45-19.64,31.91-31.2,87.07,8.83,87.07,8.83,3.56-14.23,28.47-13.34,42.71.89a77,77,0,0,1,19.32,33.6c31.76.36,39.66,20.76,40.43,24.77Z"/><path class="cls-5" d="M1072.32,182.75s-30.18-22.35-26.83,1.12c0,0-54.77-15.65-42.47,11.18,0,0-88.31-10.06-71.54,25.71h220.21s-17.89-34.65-38-23.47C1113.68,197.29,1098,168.22,1072.32,182.75Z"/><path class="cls-7" d="M517.79,140.61h383.1S847.44,64.85,822.2,98.94c0,0-16.33-72-68.29-72-41.58,0-37.12,36-37.12,36s-46-15.26-43,15c0,0-71.19-32.67-68.23,16.58C605.51,94.58,506.79,93.26,517.79,140.61Z"/></g></g></svg>