<?xml version="1.0" encoding="UTF-8"?><svg id="Camada_2" xmlns="http://www.w3.org/2000/svg" viewBox="0 0 178.04 178.04"><defs><style>.cls-1{fill:#fff;}</style></defs><g id="Camada_1-2"><path id="Caminho_18" class="cls-1" d="M89.02,0C39.86,0,0,39.86,0,89.02s39.86,89.02,89.02,89.02,89.02-39.86,89.02-89.02h0c0-49.16-39.86-89.02-89.02-89.02Zm85.04,89.02c.01,10.8-2.04,21.49-6.04,31.52l-76.4-31.65,76.31-31.61c4.06,10.09,6.14,20.86,6.12,31.74Zm-6.89-33.57l-76.31,31.61L122.44,10.81c20.07,8.61,36.08,24.59,44.73,44.64h0ZM120.61,10.05l-31.58,76.25L57.44,10.04c20.28-8.08,42.89-8.08,63.17,0h0Zm-65,.76l31.59,76.25L10.87,55.45C19.52,35.39,35.53,19.41,55.6,10.81h0ZM10.11,57.28l76.32,31.61L10.02,120.54c-8.08-20.32-8.05-42.97,.09-63.26h0Zm.67,65.1l76.41-31.65-31.68,76.47c-20.11-8.65-36.13-24.7-44.74-44.82h0Zm46.57,45.58l31.68-76.47,31.68,76.47c-20.33,8.13-43.02,8.13-63.35,0h0Zm65.19-.76l-31.68-76.47,76.41,31.65c-8.61,20.12-24.62,36.17-44.73,44.82h0Z"/></g></svg>