<?xml version="1.0" encoding="UTF-8"?><svg id="Camada_2" xmlns="http://www.w3.org/2000/svg" viewBox="0 0 10.67 714.17"><defs><style>.cls-1{fill:#fff;}.cls-2{fill:#e7344c;}.cls-3{fill:#992132;}.cls-4{fill:#c6c6c5;}</style></defs><g id="Camada_1-2"><g id="Grupo_4"><g id="Grupo_2"><rect id="Retângulo_1" class="cls-2" x="0" y="2.23" width="10.67" height="711.94"/><rect id="Retângulo_2" class="cls-3" x="6.71" y="2.23" width="3.96" height="711.94"/><path id="Caminho_1" class="cls-1" d="M0,574.96l10.67-14.2v13.39l-10.67,14.2v-13.39Zm0-19.59l10.67-14.2v-13.38l-10.67,14.2v13.39Zm0,65.96l10.67-14.2v-13.38l-10.67,14.2v13.38Zm0,32.98l10.67-14.2v-13.39l-10.67,14.2v13.39Zm0,59.87H4.57l6.09-8.11v-13.39l-10.67,14.2v7.3Zm0-26.89l10.67-14.2v-13.38l-10.67,14.2v13.39Zm0-164.89l10.67-14.2v-13.38l-10.67,14.2v13.39Zm0-164.89l10.67-14.2v-13.38l-10.67,14.2v13.39Zm0-32.98l10.67-14.2v-13.39l-10.67,14.2v13.39Zm0-32.98l10.67-14.2v-13.38l-10.67,14.2v13.39Zm0,98.93l10.67-14.2v-13.38l-10.67,14.2v13.39Zm0,65.96l10.67-14.2v-13.38l-10.67,14.2v13.39Zm0-32.98l10.67-14.2v-13.38l-10.67,14.2v13.39Zm0,65.95l10.67-14.2v-13.38l-10.67,14.2v13.39ZM0,159.6l10.67-14.2v-13.38L0,146.22v13.39Zm0-32.98l10.67-14.2v-13.38L0,113.24v13.39Zm0,65.96l10.67-14.2v-13.38L0,179.19v13.39Zm0,32.98l10.67-14.2v-13.39L0,212.17v13.39Zm0,32.98l10.67-14.2v-13.39L0,245.14v13.39ZM0,80.26v13.38l10.67-14.2v-13.38L0,80.26ZM0,47.28v13.39l10.67-14.2v-13.38L0,47.28ZM0,14.3v13.39L10.67,13.49V.11L0,14.3Z"/><g id="Grupo_1"><path id="Caminho_2" class="cls-4" d="M6.71,500.08v13.39l3.96-5.27v-13.39l-3.96,5.27Z"/><path id="Caminho_3" class="cls-4" d="M6.71,467.11v13.39l3.96-5.27v-13.39l-3.96,5.27Z"/><path id="Caminho_4" class="cls-4" d="M6.71,533.06v13.38l3.96-5.27v-13.38l-3.96,5.27Z"/><path id="Caminho_5" class="cls-4" d="M6.71,434.13v13.39l3.96-5.27v-13.39l-3.96,5.27Z"/><path id="Caminho_6" class="cls-4" d="M6.71,664.97v13.39l3.96-5.27v-13.39l-3.96,5.27Z"/><path id="Caminho_7" class="cls-4" d="M6.71,401.15v13.39l3.96-5.27v-13.39l-3.96,5.27Z"/><path id="Caminho_8" class="cls-4" d="M10.67,706.06v-13.39l-3.96,5.27v13.39l3.96-5.27Z"/><path id="Caminho_9" class="cls-4" d="M6.71,566.04v13.39l3.96-5.27v-13.39l-3.96,5.27Z"/><path id="Caminho_10" class="cls-4" d="M6.71,631.99v13.39l3.96-5.27v-13.39l-3.96,5.27Z"/><path id="Caminho_11" class="cls-4" d="M6.71,599.02v13.39l3.96-5.27v-13.39l-3.96,5.27Z"/><path id="Caminho_12" class="cls-4" d="M6.71,170.27v13.39l3.96-5.27v-13.38l-3.96,5.27Z"/><path id="Caminho_13" class="cls-4" d="M6.71,137.29v13.39l3.96-5.27v-13.39l-3.96,5.27Z"/><path id="Caminho_14" class="cls-4" d="M6.71,203.24v13.39l3.96-5.27v-13.39l-3.96,5.27Z"/><path id="Caminho_15" class="cls-4" d="M6.71,104.31v13.39l3.96-5.27v-13.38l-3.96,5.27Z"/><path id="Caminho_16" class="cls-4" d="M6.71,71.3v13.39l3.96-5.27v-13.39l-3.96,5.27Z"/><path id="Caminho_17" class="cls-4" d="M6.71,38.28v13.39l3.96-5.27v-13.39l-3.96,5.27Z"/><path id="Caminho_18" class="cls-4" d="M6.71,5.27v13.39l3.96-5.27V0l-3.96,5.27Z"/><path id="Caminho_19" class="cls-4" d="M6.71,236.22v13.39l3.96-5.27v-13.39l-3.96,5.27Z"/><path id="Caminho_20" class="cls-4" d="M6.71,302.22v13.39l3.96-5.27v-13.39l-3.96,5.27Z"/><path id="Caminho_21" class="cls-4" d="M6.71,335.2v13.39l3.96-5.27v-13.39l-3.96,5.27Z"/><path id="Caminho_22" class="cls-4" d="M6.71,368.17v13.39l3.96-5.27v-13.39l-3.96,5.27Z"/><path id="Caminho_23" class="cls-4" d="M6.71,269.24v13.39l3.96-5.27v-13.39l-3.96,5.27Z"/></g></g></g></g></svg>