<?xml version="1.0" encoding="UTF-8"?><svg id="Camada_2" xmlns="http://www.w3.org/2000/svg" viewBox="0 0 236 246.31"><defs><style>.cls-1{fill:#fff;}.cls-2{fill:#e7344c;}.cls-3{fill:#c17e54;}.cls-4{fill:#73202c;}.cls-5{fill:#dfaa72;}.cls-6{fill:#1d1d1b;stroke:#1d1d1b;stroke-miterlimit:10;stroke-width:.87px;}.cls-7{fill:#ececec;}</style></defs><g id="Camada_1-2"><g id="Grupo_3"><path id="Caminho_24" class="cls-5" d="M188.98,151.4s11.29-9.9,29.89-2.18,22.09,25.33,10.26,39.14-22.8,17.66-22.72,25.34c.13,12.3,12.6,8.53,12.6,8.53,0,0-4.14,12.79-16.43,11.68-18.67-1.68-30.8-23.24-7.91-48.32,15.38-16.86,7.09-25.86-3.52-27.46-4.79-.71-2.17-6.74-2.17-6.74Z"/><path id="Caminho_25" class="cls-3" d="M202.58,233.92c12.29,1.1,16.43-11.68,16.43-11.68,0,0-12.47,3.76-12.6-8.53-.03-2.51,1.13-4.61,3.1-6.78-.18-.64-.32-1.29-.41-1.95-.58-4.16-2.31-.11-5.68-.49s.35-3.42,.03-7.51-5.74,3-7.34-.43,10.92-13.17,14.77-21.85c4.76-10.72,.89-17.98-5.89-21.29-5.17-2.53-13.21,.06-16.74,1.43-.13,1.7,1.15,3.18,2.86,3.31,.01,0,.02,0,.03,0,10.61,1.59,18.9,10.6,3.52,27.46-22.89,25.08-10.75,46.64,7.91,48.32Z"/><path id="Caminho_26" class="cls-5" d="M29.59,31.05c-.76-1.41-10.41-15.91-2.92-27.01s23.55,4.29,40.28,2.83,31.29,19.36,33.72,35.69-3.05,51.47,2.42,54.91c0,0-16.13,5.4-25.94-9.22s-7.71-32.6-4.55-47.17-1.28-25.57-11.82-29.93c-9.86-4.08-31.19,19.91-31.19,19.91Z"/><path id="Caminho_27" class="cls-1" d="M44.15,14.77c-6.33,3.31-27.95,20.18-38.76,25.83s-4.26,26.23,9.82,23.82,33.47-5.73,33.47-5.73c0,0,7.9,9.19,4.17,26.93s-6.26,25.35-5.7,37.66l-29.53,12.62c-3.98,1.68-6.95,5.13-8.02,9.32-1.67,6.55-1.45,16.23-1.16,23.77,.47,12.14,8.76,27.11,24.69,24.88l6.47-20.65s-14.54,1.09-15.27-5.89c-.46-4.91-.15-9.85,.9-14.67l35.45-.54s23.84,26.29,63.33,31.53c0,0-6.65,24.46,27.98,35.31,0,0-42.44-5.37-50.28,19.63l22.77,7.14s.72-12.82,17.88-12.29c12.79,.4,30.18,5.63,34.38-7.79,4.97-15.87-12.27-12.8-8-26.44,0,0,16.81-3.68,23.66-25.53s-8.54-44.77-50.57-57.94-40.95-17.92-43.82-34.07-5.12-58.11-23-67.81c-12.5-6.79-24.53-2.4-30.86,.91Z"/><path id="Caminho_28" class="cls-5" d="M26.93,26.47c-.76-1.41-7.75-11.32-.27-22.42s23.55,4.29,40.28,2.83,31.29,19.36,33.72,35.69-3.05,51.47,2.42,54.91c0,0-16.13,5.4-25.94-9.22s-7.84-47.56-7.95-62.47c-.15-18.77-11.01-16.45-21.74-12.57-5.6,2.03-20.53,13.26-20.53,13.26Z"/><path id="Caminho_29" class="cls-3" d="M77.15,88.25c9.8,14.63,25.94,9.22,25.94,9.22-2.38-1.5-2.68-8.97-2.48-18.29h0c-3.55-7.08-4.79,6.7-9.71,.31s-5.05-7.53-11.5-7.31-5.2-9.29-1.11-28.48-2.2-26.73-6.85-31.43-17.14-4.15-24.32-1.96-15,2.29-17.75-.95c-1.37-1.62-1.16-4.82-.6-7.61-.82,.65-1.54,1.42-2.11,2.3-7.49,11.1-.49,21.01,.27,22.42,0,0,14.92-11.22,20.53-13.26,10.73-3.89,21.59-6.21,21.74,12.57,.11,14.91-1.85,47.84,7.95,62.47Z"/><path id="Caminho_30" class="cls-1" d="M54.33,20.4s-4.81-11.27-.38-17.61l12.21,16.84-11.83,.77Z"/><path id="Caminho_31" class="cls-7" d="M192.41,173.68c1.24-3.87,1.75-7.94,1.5-12-5.73,9.41-10.61,13.92-24.16,14.91-40.25,2.97-74.85-8.5-97.95-37.28-15.37-19.14-13.12-38.11-10.53-53.12s.68-34.01-5.79-40.56-29.79,10.46-40.53,12.74c-6.78,1.43-11.06,.07-14.76-5.8,1.09,6.76,6.75,13.26,15.02,11.84,14.09-2.41,33.47-5.73,33.47-5.73,0,0,7.9,9.19,4.17,26.93-3.73,17.74-6.26,25.35-5.7,37.66l-.13,.06c1.86,2.55,4.79,7.18,3.26,9.31-2.18,3.03-27,5.69-30,9.65-2.45,3.24-7.04,15.54-12,14.99-.09,4.01,.03,8.1,.17,11.7,.47,12.14,8.76,27.11,24.69,24.88l6.47-20.65s-14.54,1.09-15.27-5.89c-.46-4.91-.15-9.85,.9-14.67l35.45-.54s23.84,26.29,63.33,31.53c0,0-6.65,24.46,27.98,35.31,0,0-42.44-5.37-50.28,19.63l22.77,7.14s.72-12.82,17.88-12.29c12.79,.4,30.18,5.63,34.38-7.79,4.97-15.87-12.27-12.8-8-26.44,0,0,16.81-3.68,23.66-25.52Z"/><path id="Caminho_32" class="cls-6" d="M109.53,227.29c-3.7,2.89-6.42,6.83-7.82,11.31l22.77,7.14c.59-5.05,4.01-9.33,8.82-11l-23.77-7.45Z"/><path id="Caminho_33" class="cls-2" d="M142.83,112.58c-30.28-9.49-36.65-11.9-39.26-21.2-2.57,3.67-4.45,5.9-5.86,10.4-7.41,23.49,5.64,48.55,29.13,55.95,21.91,6.91,45.49-3.96,54.47-25.11-8.75-7.61-21.11-14.6-38.49-20.04Z"/><path id="Caminho_34" class="cls-4" d="M173.35,126.44c-6.11,18.26-25.86,28.11-44.12,22.01-18.26-6.11-28.11-25.86-22.01-44.12,.64-1.92,1.45-3.78,2.42-5.56,5.24-6.88-2.2-12.22-6.51-7.96-2.42,3.32-4.25,7.04-5.41,10.98-7.41,23.49,5.64,48.55,29.13,55.95,21.91,6.91,45.49-3.96,54.47-25.11,2.1-6.7-5.7-12.64-7.97-6.19Z"/><path id="Caminho_35" class="cls-5" d="M167.55,123.13c-1.3-.73-2.61-1.46-4-2.17-1.76,6.27-6.04,11.52-11.82,14.51-4.66,2.45-12.22,4.42-21.8,.09-17.02-7.76-12.89-24.91-10.83-30.92-1.54-.6-2.88-1.19-4.13-1.76-2.28,6.72-7.38,27.46,13.09,36.79,1.29,.6,2.62,1.11,3.98,1.53,14.65,4.89,30.49-3.01,35.38-17.66,.04-.13,.09-.27,.13-.4h0Z"/><path id="Caminho_36" class="cls-4" d="M64.47,34.28h.06l.4-21.88c-1.49-.99-3.78-2.15-5.4-2.06l.04,20.62-.19,.07-7.14-19.48c-1.63,.46-3.23,1.01-4.78,1.67l7.29,19.54-33.09,12.37-4.45-11.9c-1.46,.99-2.86,1.91-4.24,2.81l4.05,10.83-.1,.04,1.73,4.64,.1-.04,4.33,11.58,4.97-.85-4.66-12.46,35.24-13.18-9.95,22.11,2.52,4.32,13.31-28.63-.04-.12Z"/><path id="Caminho_37" class="cls-6" d="M26.73,171.02l-6.4,20.45c3.85,2.27,8.38,3.13,12.8,2.41l6.47-20.65s-8.56,.64-12.87-2.21Z"/></g></g></svg>